<svg width="298" height="455" viewBox="0 0 298 455" fill="none" xmlns="http://www.w3.org/2000/svg">
<path d="M272 116H39.503C39.503 121.103 24.4709 215 158.758 215C258.471 215 269.094 152.232 272 116Z" fill="#EBF4FC"/>
<path d="M272 432H39.503C39.503 426.897 24.4709 333 158.758 333C258.471 333 269.094 395.768 272 432Z" fill="#EBF4FC"/>
<path d="M166.521 146.64C164.699 146.64 69.4678 153.021 49.771 160.643C49.771 160.643 71.7345 208.877 130.202 208.877C130.202 208.877 138.825 209.223 142.522 234.015C144.141 244.875 144.448 248.884 144.448 261.727C144.448 339.939 136.864 356.088 133.582 365.654C131.713 369.761 129.544 380.08 111.186 387.998C109.784 388.706 86.8056 398.48 76.4237 415.674H220.173C220.173 415.674 215.795 394.739 184.897 384.35C179.251 382.418 156.402 380.537 156.558 261.163C156.558 261.163 155.739 239.132 157.469 234.015C162.794 218.27 177.525 209.582 185.17 207.41C213.411 199.388 230.518 193.836 248.873 160.858C249.392 158.775 240.954 147.673 166.521 146.64Z" fill="#FFCA41"/>
<path d="M209.345 169.153C209.345 169.153 195.202 191.457 167.356 203.14C167.356 203.14 147.38 211.211 156.558 261.163C156.558 261.163 155.478 236.187 159.257 229.672C160.337 228.043 166.275 215.012 181.391 208.853C204.605 201.981 230.518 196.551 248.502 160.794C249.021 158.775 220.615 169.153 209.345 169.153Z" fill="#FDBE1C"/>
<path d="M207.13 200.106C224.508 193.621 241.385 177.663 248.502 160.794C248.79 159.674 246.501 167.007 231.718 169.124C231.718 169.124 226.988 187.402 207.13 200.106Z" fill="#F1B008"/>
<path d="M222.957 169.571C207.267 169.471 191.614 168.059 176.157 165.348C174.6 164.93 135.016 157.319 101.033 157.319C101.033 157.319 65.6995 154.361 49.3999 160.62C82.0799 148.079 161.242 146.698 163.024 146.634C163.024 146.634 211.79 145.55 236.759 153.183C237.711 153.479 248.733 156.554 248.398 160.626C248.381 160.927 247.141 169.571 222.957 169.571Z" fill="#FFD770"/>
<path d="M76.0527 415.651H219.802C219.802 415.651 216.814 401.364 198.358 390.533C198.358 390.533 222.94 415.651 76.0527 415.651Z" fill="#FDBE1C"/>
<path d="M198.934 415.651H219.802C219.802 415.651 218.648 410.076 213.261 403.249C213.261 403.249 216.86 415.651 198.934 415.651Z" fill="#F1B008"/>
<path d="M129.831 0.530472H0.645264V39.3492H129.831V0.530472Z" fill="#EC5F60"/>
<path d="M297.355 415.651C297.355 350.374 249.488 296.33 187.122 287.104C176.727 285.566 168.158 294.233 168.158 304.741C168.158 315.251 176.77 323.572 187.05 325.755C192.536 326.92 197.916 328.594 203.121 330.761C214.206 335.378 224.278 342.145 232.762 350.678C241.247 359.21 247.976 369.339 252.567 380.487C257.158 391.636 259.52 403.584 259.518 415.651H38.4817C38.4817 403.586 40.8445 391.64 45.4353 380.494C50.0261 369.347 56.755 359.22 65.2376 350.689C73.7202 342.158 83.7906 335.392 94.8736 330.775C100.077 328.608 105.456 326.934 110.94 325.769C121.22 323.584 129.831 315.264 129.831 304.754C129.831 294.245 121.261 285.577 110.865 287.115C48.5078 296.342 0.633789 350.376 0.633789 415.662C0.633789 437.101 18.0135 454.481 39.4525 454.481H258.524C279.97 454.481 297.355 437.096 297.355 415.651Z" fill="#384B5E"/>
<path d="M129.831 78.1912H0.645264V117.01C0.645264 188.765 58.4841 246.947 129.842 246.947V208.853C117.846 208.856 105.966 206.481 94.8815 201.866C83.7972 197.25 73.7255 190.483 65.2416 181.952C56.7578 173.422 50.0279 163.294 45.4364 152.147C40.8448 141 38.4816 129.052 38.4816 116.987H129.831V78.1912Z" fill="#EC5F60"/>
<path d="M187.579 78.1912C176.859 78.1912 168.169 86.881 168.169 97.6005C168.169 108.32 176.859 117.01 187.579 117.01H259.519C259.512 141.371 249.885 164.733 232.754 181.957C220.148 194.631 204.239 203.218 187.061 206.869C176.781 209.054 168.169 217.374 168.169 227.883C168.169 238.393 176.739 247.06 187.135 245.522C249.492 236.296 297.366 182.261 297.366 116.975V108.191C297.366 91.6226 283.935 78.1912 267.366 78.1912H187.579Z" fill="#384B5E"/>
</svg>
