<svg width="166" height="165" viewBox="0 0 166 165" fill="none" xmlns="http://www.w3.org/2000/svg">
<path fill-rule="evenodd" clip-rule="evenodd" d="M51.21 62.8337L161.058 0.470149C162.143 -0.149623 164.499 -0.64544 165.243 2.32946V60.2229C164.042 60.0298 162.81 59.9295 161.554 59.9295C149.093 59.9295 138.94 69.8091 138.509 82.1591L114.553 72.0538L98.8517 94.8091C97.5513 96.6937 94.7041 96.4856 93.6916 94.4319L80.1388 66.9406L52.1711 66.5728C50.1314 66.546 49.436 63.8409 51.21 62.8337Z" fill="#D95858"/>
<path d="M98.943 94.6396L163.382 0.470383L90.834 87.8582L93.7402 94.1959C94.7123 96.3159 97.6258 96.5644 98.943 94.6396Z" fill="#BB4142"/>
<path d="M80.1387 67.4057L163.383 0.470383L90.8349 87.8582L80.1387 67.4057Z" fill="#D1494A"/>
<path fill-rule="evenodd" clip-rule="evenodd" d="M1.21963 159.043L25.2619 144.024L32.2376 122.642C33.3228 119.853 37.1672 114.554 43.8639 115.67C43.9173 115.687 43.9837 115.709 44.0618 115.734C46.0235 116.36 55.3833 119.351 52.6999 130.079C52.1186 132.403 50.3746 134.263 43.8639 138.446C38.6553 141.793 32.0826 145.729 29.4473 147.278C28.8273 149.757 28.5172 155.366 32.2376 157.969C32.2724 157.986 32.3246 158.015 32.3937 158.052C34.1748 159.02 47.1578 166.072 60.1407 147.278C70.0051 132.998 81.1393 116.595 86.6483 108.441C87.4228 107.294 88.9738 106.993 90.1251 107.76C91.2853 108.533 91.5952 110.102 90.8157 111.258L63.3961 151.926C60.4507 155.955 52.4209 164.198 43.8639 164.941C43.7402 164.941 43.5544 164.949 43.3146 164.958C40.8489 165.055 32.673 165.377 27.5871 160.293C27.4359 160.142 27.2902 160.007 27.1488 159.877C25.9849 158.8 25.1107 157.992 23.8667 150.532C15.7046 155.971 8.21805 160.755 3.95165 163.438C2.66116 164.249 0.956367 163.766 0.274341 162.403C-0.323973 161.207 0.0854044 159.752 1.21963 159.043ZM32.2379 139.376L37.3535 124.037C37.9736 122.797 39.9578 120.411 42.9341 120.783C43.3992 120.783 50.3749 122.178 46.6545 129.615C45.6429 131.637 40.9638 134.311 36.6948 136.751C35.0761 137.676 33.5164 138.567 32.2379 139.376Z" fill="#D95858"/>
</svg>
