<svg width="48" height="48" viewBox="0 0 48 48" fill="none" xmlns="http://www.w3.org/2000/svg">
<g clip-path="url(#clip0_176:196)">
<path fill-rule="evenodd" clip-rule="evenodd" d="M21.2822 7.125C28.74 7.125 34.9407 11.9541 36.331 18.5212C43.1907 18.2803 48.001 23.5556 48.001 29.625C48.001 35.8434 42.9704 40.875 36.751 40.875H33.2563L35.4939 37C35.7819 36.4735 35.6559 35.8266 35.1924 35.4588L32.7107 33.5181C32.7422 33.2189 32.7692 32.869 32.7692 32.4989C32.7692 32.1287 32.7433 31.7789 32.7107 31.4796L35.1947 29.5379C35.656 29.1734 35.7819 28.5265 35.4883 27.9877L32.9075 23.5225C32.6319 23.0185 32.0278 22.7598 31.4147 22.9859L28.4863 24.1615C27.9249 23.7565 27.3365 23.4145 26.7279 23.1411L26.2824 20.035C26.2093 19.4455 25.6963 19 25.0899 19H19.915C19.3086 19 18.7967 19.4455 18.7247 20.026L18.2781 23.1434C17.6886 23.4089 17.1092 23.7464 16.5231 24.1637L13.5868 22.9848C13.0366 22.7721 12.3785 23.0106 12.1051 23.5124L9.52106 27.9831C9.2162 28.4984 9.34218 29.1678 9.81358 29.5413L12.2953 31.4819C12.2559 31.861 12.2368 32.1907 12.2368 32.5001C12.2368 32.8094 12.256 33.139 12.2953 33.5193L9.81131 35.461C9.35004 35.8266 9.22517 36.4735 9.51879 37.0113L11.752 40.875H9.84473C4.41754 40.875 0.000976562 36.4584 0.000976562 31.0312C0.000976562 27.2325 2.29598 23.7356 5.68598 22.1428C4.8366 14.8069 11.7891 7.125 21.2822 7.125ZM16.4272 40.875H16.5733C16.5558 40.8625 16.5383 40.85 16.5208 40.8374L16.4272 40.875ZM28.4293 40.875H28.5805L28.484 40.8363C28.4658 40.8492 28.4476 40.8622 28.4293 40.875ZM18.0024 32.5C18.0024 34.9817 20.0207 37 22.5024 37C24.9841 37 27.0024 34.9817 27.0024 32.5C27.0024 30.0183 24.9841 28 22.5024 28C20.0207 28 18.0024 30.0183 18.0024 32.5Z" fill="#848F9A"/>
</g>
<defs>
<clipPath id="clip0_176:196">
<rect width="48" height="48" fill="white" transform="translate(0.000976562)"/>
</clipPath>
</defs>
</svg>
