<svg width="127" height="24" viewBox="0 0 127 24" fill="none" xmlns="http://www.w3.org/2000/svg">
<path d="M57.5891 12.3393H51.8407V15.2336H55.3473L55.3214 17.9124C54.4323 18.8558 53.3682 19.6172 52.1885 20.1544C50.9442 20.7087 49.5958 20.9909 48.2336 20.9821C47.2129 20.9875 46.1987 20.8194 45.2344 20.4849H45.2243H45.2157C44.2541 20.1725 43.3498 19.7056 42.5384 19.1024C41.7369 18.5166 41.0393 17.8006 40.4747 16.9841C39.9783 16.2796 39.5908 15.5044 39.325 14.6847C39.0575 13.853 38.9222 12.9844 38.9241 12.1108C38.9241 11.9843 38.9355 11.7141 38.9902 11.135C39.0936 10.1123 39.3767 9.11594 39.8266 8.19172C40.2672 7.28614 40.8559 6.46044 41.5683 5.74861C42.4071 4.92915 43.3853 4.26583 44.4569 3.78981C45.6116 3.27146 46.8645 3.00823 48.1301 3.01807C49.4335 3.01591 50.7249 3.26678 51.9327 3.75675C53.1233 4.23657 54.2028 4.95559 55.1044 5.86933L55.5513 6.32346L56.0471 5.92969L57.2644 4.95388L57.8823 4.45519L57.3247 3.89759C55.2768 1.84537 52.8251 0.60226 50.0386 0.199865C49.4516 0.118991 48.8605 0.0710114 48.2681 0.0561523C46.1759 0.0718008 44.1189 0.595567 42.2739 1.58238C40.0608 2.74645 38.3334 4.52418 37.1349 6.86525V6.87244V6.88106C36.3572 8.48625 35.9528 10.2466 35.9521 12.0303C35.9401 12.928 36.041 13.8236 36.2525 14.6962C36.5111 15.6997 36.8793 16.6718 37.3504 17.5948V17.6106L37.359 17.6265C38.1514 19.0315 39.2096 20.2688 40.4747 21.2696C41.7169 22.2551 43.143 22.9835 44.6696 23.4123C47.7894 24.346 51.1494 24.0371 54.0467 22.55C54.637 22.2507 55.203 21.9057 55.7396 21.5182C56.6396 20.8415 57.4474 20.0501 58.1424 19.1642L58.2962 18.9716V12.3393H57.5891Z" fill="#384B5E"/>
<path d="M91.6196 11.2785C91.152 10.1289 90.4692 9.0792 89.6077 8.18582C88.7367 7.32485 87.699 6.65095 86.5582 6.20546C84.2017 5.28535 81.5854 5.28535 79.229 6.20546C78.0854 6.65074 77.0459 7.32683 76.1751 8.19157C75.3015 9.03644 74.604 10.0461 74.1229 11.1621C73.6325 12.2892 73.3805 13.5056 73.3828 14.7348C73.3798 15.9594 73.6319 17.1713 74.1229 18.2931C74.6096 19.4045 75.3092 20.4098 76.1823 21.2522C77.9824 22.988 80.3872 23.9554 82.8878 23.9497C84.4388 23.9621 85.969 23.5918 87.3428 22.8718C88.6792 22.1683 89.8361 21.1672 90.7243 19.9458L91.2058 19.2876L90.4872 18.9039L89.0903 18.1623L88.5658 17.8749L88.2008 18.3463C87.5792 19.1513 86.789 19.8105 85.8856 20.2778C84.958 20.7515 83.9293 20.9931 82.8878 20.982C81.3648 21.0133 79.8853 20.4723 78.7418 19.4658C77.7339 18.6153 77.0007 17.485 76.635 16.2179H92.3482L92.3914 15.5568L92.4259 15.0165V14.9719C92.4105 13.6988 92.1362 12.4422 91.6196 11.2785ZM76.635 13.2129C77.0005 11.9475 77.732 10.8185 78.7375 9.96785C79.8974 8.98696 81.3673 8.44874 82.8864 8.44874C84.4054 8.44874 85.8754 8.98696 87.0353 9.96785C88.0424 10.8189 88.7749 11.949 89.1406 13.2158L76.635 13.2129Z" fill="#384B5E"/>
<path d="M106.459 6.52591C104.844 5.57656 102.932 5.26688 101.1 5.65796C99.2684 6.04904 97.6495 7.11248 96.5631 8.63849C95.8219 9.70133 95.4301 10.9686 95.4422 12.2644V23.9439H98.4975V12.2644C98.5002 11.7707 98.6095 11.2834 98.8179 10.8359C99.1452 10.102 99.6842 9.48259 100.366 9.05704C101.047 8.63149 101.84 8.41919 102.643 8.44735C103.152 8.46076 103.656 8.55187 104.137 8.71753L104.424 8.80807L104.687 8.66436L106.426 7.7604L107.551 7.17262L106.459 6.52591Z" fill="#384B5E"/>
<path d="M125.89 5.51147H123.576V7.87698C123.03 7.3387 122.405 6.88702 121.723 6.53758C120.403 5.85782 118.833 5.51435 117.052 5.51435C115.797 5.50742 114.553 5.74261 113.387 6.20704C112.258 6.66156 111.227 7.33066 110.352 8.17734C109.475 9.02416 108.775 10.0362 108.291 11.1551C107.804 12.2831 107.553 13.499 107.553 14.7278C107.553 15.9566 107.804 17.1724 108.291 18.3005C108.771 19.4159 109.475 20.4207 110.359 21.2523C111.232 22.0968 112.26 22.7635 113.387 23.2154C114.554 23.6806 115.8 23.9159 117.056 23.9081C118.705 23.9081 120.199 23.5503 121.495 22.8432C122.27 22.416 122.972 21.8683 123.575 21.2207V23.9512H126.593V5.51147H125.89ZM117.058 8.44752C117.923 8.44476 118.781 8.61022 119.584 8.93471C120.357 9.24414 121.062 9.69882 121.664 10.2741C122.257 10.8547 122.729 11.5476 123.051 12.3126C123.374 13.0775 123.541 13.8991 123.542 14.7292C123.544 15.5603 123.369 16.3824 123.029 17.1407C122.354 18.6713 121.104 19.8743 119.548 20.4892C118.758 20.8122 117.912 20.9781 117.058 20.9778C116.185 20.9798 115.321 20.8134 114.511 20.4878C113.732 20.183 113.021 19.7285 112.417 19.1498C111.829 18.5807 111.36 17.9002 111.038 17.1479C110.705 16.3849 110.535 15.5613 110.538 14.7292C110.54 13.899 110.707 13.0776 111.03 12.3127C111.352 11.5478 111.824 10.8548 112.417 10.2741C113.022 9.69641 113.733 9.24197 114.511 8.93615C115.321 8.61124 116.185 8.44534 117.058 8.44752Z" fill="#384B5E"/>
<path d="M67.0783 8.44179H69.6536H70.3607V7.74047V6.22143V5.51436H69.6536H67.0783L67.087 0.771846V0.0690918H66.3943H64.7876H64.082V0.766098L64.0734 5.50861H62.0298H61.3228V6.21568V7.73472V8.44179H62.0298H64.0734L64.0475 16.7901V17.4986H64.0576C64.1115 18.6926 64.5065 19.8461 65.1957 20.8226C65.9602 21.9066 67.0027 22.7645 68.2136 23.306C68.6294 23.4945 69.0626 23.6418 69.507 23.7457L70.3693 23.9498V20.952L69.8793 20.7939C69.3017 20.6068 68.772 20.2959 68.3272 19.8827C67.9542 19.5214 67.6528 19.0928 67.4391 18.6195C67.1789 18.0447 67.0582 17.5948 67.0582 17.191V16.6708L67.0783 8.44179Z" fill="#384B5E"/>
<path d="M16.6792 3.72647V0.0632324L7.45157 0.0632324V3.72647L16.6792 3.72647Z" fill="#EC5F60"/>
<path d="M23.9966 7.40266H20.332V20.2721H3.78229V0.0646973H0.117676V20.2721V23.9368H3.78229H23.9822H23.9966V7.40266Z" fill="#384B5E"/>
<path d="M16.6702 12.9485C15.8829 12.9488 15.1046 12.781 14.3874 12.4563C13.6701 12.1317 13.0305 11.6576 12.5112 11.0658H16.6788V7.40259H7.45117C7.45232 9.84678 8.42415 12.1905 10.153 13.9182C11.8818 15.646 14.226 16.6164 16.6702 16.616H16.6788V12.9485H16.6702Z" fill="#EC5F60"/>
</svg>
