<svg width="128" height="24" viewBox="0 0 128 24" fill="none" xmlns="http://www.w3.org/2000/svg">
<path d="M57.7458 12.3337H51.9697V15.243H55.4925L55.4674 17.9327C54.5735 18.8807 53.5042 19.6464 52.3188 20.1873C51.0707 20.7438 49.7183 21.0278 48.3517 21.0204C47.326 21.0252 46.307 20.8557 45.338 20.5192H45.3288H45.3195C44.3518 20.2072 43.4411 19.74 42.6232 19.136C41.8184 18.5466 41.1177 17.8271 40.5497 17.007C40.0526 16.2973 39.6652 15.5167 39.4006 14.6915C39.1338 13.8554 38.9999 12.9826 39.0039 12.105C39.0039 11.9794 39.0158 11.7083 39.0713 11.1238C39.175 10.099 39.4593 9.1006 39.911 8.17489C40.3531 7.26288 40.9444 6.43112 41.6605 5.71396C42.5063 4.89084 43.4912 4.22418 44.5697 3.74495C45.7304 3.22843 46.9888 2.96818 48.2591 2.98195C49.5691 2.9792 50.867 3.23116 52.0808 3.72379C53.2762 4.20449 54.3607 4.92449 55.2677 5.83959L55.7173 6.2958L56.2172 5.89909L57.4404 4.91922L58.0579 4.42465L57.4985 3.86264C55.4396 1.80239 52.9774 0.556718 50.1779 0.148105C49.5821 0.0650455 48.9821 0.0155988 48.3808 0C46.3417 0 44.3145 0.515724 42.3561 1.53263C40.1332 2.70292 38.3982 4.48812 37.1988 6.84062V6.84856V6.85649C36.4168 8.46941 36.0099 10.2384 36.0087 12.0309C35.9971 12.9326 36.0984 13.8322 36.3102 14.7087C36.5698 15.7161 36.9396 16.6917 37.4131 17.6179L37.421 17.6338L37.4289 17.6497C38.2259 19.0588 39.2894 20.2993 40.5603 21.3021C41.8082 22.2928 43.2408 23.0251 44.7747 23.4562C45.9592 23.8105 47.1894 23.9888 48.4258 23.9852C50.4323 23.9816 52.4096 23.504 54.1966 22.5914C54.7898 22.2902 55.3588 21.9436 55.8985 21.5546C56.8017 20.8736 57.6129 20.0784 58.3118 19.1889L58.4665 18.9945V12.3337H57.7458Z" fill="white"/>
<path d="M91.939 11.268C91.4675 10.1128 90.7794 9.05844 89.9118 8.16173C89.0366 7.29768 87.9933 6.62255 86.8465 6.17817C84.48 5.25246 81.8515 5.25246 79.4849 6.17817C78.3389 6.62332 77.2962 7.29836 76.421 8.16173C75.5431 9.01116 74.842 10.026 74.3581 11.1476C73.8667 12.2802 73.6141 13.502 73.6162 14.7366C73.6135 15.9654 73.8665 17.1813 74.3594 18.307C74.8487 19.4278 75.5537 20.4414 76.4342 21.2902C78.2446 23.0356 80.6635 24.0074 83.1783 23.9998C84.735 24.0122 86.2707 23.6402 87.6492 22.9167C88.9892 22.2063 90.1479 21.1973 91.0358 19.9678L91.5185 19.3067L90.7951 18.9219L89.3934 18.1787L88.8645 17.8983L88.4982 18.3704C87.8742 19.1799 87.0802 19.8426 86.1721 20.3117C85.2414 20.7843 84.2102 21.0248 83.1664 21.0125C81.5491 21.0125 80.1858 20.514 78.9996 19.4892C77.9876 18.634 77.2515 17.4984 76.8838 16.2255H92.6729L92.7152 15.5644L92.7509 15.0209V14.9759C92.7348 13.6976 92.4585 12.436 91.939 11.268ZM76.8825 13.2119C77.2506 11.9403 77.9867 10.8061 78.9983 9.95222C80.1884 8.92209 81.5531 8.42488 83.1704 8.42488C84.7876 8.42488 86.1483 8.92209 87.3358 9.94825C88.3479 10.8033 89.0841 11.9389 89.4516 13.2119H76.8825Z" fill="white"/>
<path d="M106.849 6.49282C105.687 5.81183 104.361 5.4607 103.014 5.47724C101.957 5.46736 100.911 5.68614 99.9473 6.11859C98.7278 6.6627 97.6772 7.52509 96.9059 8.61523C96.1617 9.68384 95.7684 10.9575 95.7805 12.2597V23.9931H98.8498V12.2597C98.8527 11.7635 98.9623 11.2737 99.1711 10.8236C99.501 10.0874 100.043 9.46603 100.727 9.03882C101.411 8.61161 102.208 8.39786 103.014 8.42481C103.525 8.43765 104.031 8.52908 104.515 8.69589L104.798 8.78581L105.062 8.65358L106.817 7.7385L107.946 7.14079L106.849 6.49282Z" fill="white"/>
<path d="M126.373 5.47327H124.049V7.85353C123.501 7.31147 122.874 6.85658 122.188 6.50472C120.866 5.82237 119.285 5.47591 117.495 5.47591C116.233 5.4684 114.982 5.70504 113.809 6.1728C112.673 6.62977 111.637 7.30347 110.757 8.15636C109.876 9.00713 109.173 10.0243 108.688 11.1489C107.952 12.8485 107.757 14.7332 108.129 16.5474C108.501 18.3616 109.423 20.0174 110.768 21.2901C111.644 22.1382 112.677 22.8079 113.809 23.2618C114.981 23.7299 116.233 23.9665 117.495 23.9587C119.152 23.9587 120.653 23.5977 121.957 22.8876C122.735 22.4581 123.44 21.9078 124.046 21.2571V23.9931H127.081V5.47988L126.373 5.47327ZM117.498 8.42347C118.368 8.42077 119.23 8.5874 120.037 8.91407C120.813 9.22417 121.522 9.68076 122.126 10.2589C122.722 10.8423 123.195 11.5384 123.52 12.3066C123.844 13.0749 124.012 13.9 124.014 14.7338C124.016 15.5689 123.84 16.3948 123.497 17.1564C122.821 18.6943 121.565 19.9032 120.002 20.5205C119.207 20.8456 118.356 21.0123 117.498 21.0111C116.621 21.0131 115.752 20.8465 114.939 20.5205C114.157 20.2125 113.442 19.7553 112.835 19.1743C112.245 18.6018 111.774 17.9183 111.449 17.163C111.115 16.3963 110.944 15.5687 110.947 14.7325C110.949 13.8986 111.117 13.0736 111.441 12.3053C111.765 11.5371 112.239 10.841 112.835 10.2576C113.443 9.67752 114.157 9.22081 114.939 8.91275C115.753 8.58744 116.621 8.42135 117.498 8.42347Z" fill="white"/>
<path d="M67.2805 8.41821H69.8684H70.5785V7.71339V6.18605V5.47593H69.8684H67.2805L67.2898 0.715402V0H66.5797H64.9717H64.2682V0.699534L64.2603 5.46007H62.2066H61.4912V6.17018V7.69619V8.40631H62.2013H64.2536L64.2206 16.7941V17.5069H64.2298C64.2846 18.7066 64.6815 19.8657 65.3737 20.8472C66.1446 21.9374 67.1953 22.7995 68.4151 23.3425C68.8323 23.5321 69.2673 23.6796 69.7137 23.7828L70.5865 23.9878V20.9873L70.0932 20.8287C69.5517 20.6613 69.0523 20.3798 68.6287 20.0032C68.2052 19.6266 67.8672 19.1636 67.6376 18.6454C67.3731 18.0728 67.2554 17.6166 67.2554 17.2093V16.6804L67.2805 8.41821Z" fill="white"/>
<path d="M16.6387 3.68282V0.00134277L7.36621 0.00134277V3.68282L16.6387 3.68282Z" fill="#EC5F60"/>
<path d="M23.9927 7.3749H20.3113V20.3064H3.68246V0.00268555H0.000976562V20.3064V23.9878H3.68246H23.9782H23.9927V7.3749Z" fill="white"/>
<path d="M16.6314 12.946C15.8406 12.9464 15.0588 12.7779 14.3384 12.4517C13.618 12.1256 12.9755 11.6494 12.454 11.055H16.6406V7.37354H7.36816C7.36992 9.82914 8.34663 12.1836 10.0836 13.9193C11.8206 15.6551 14.1758 16.6301 16.6314 16.6301H16.6419V12.946H16.6314Z" fill="#EC5F60"/>
</svg>
