<svg width="48" height="48" viewBox="0 0 48 48" fill="none" xmlns="http://www.w3.org/2000/svg">
<g clip-path="url(#clip0_170:36)">
<path d="M47.942 35.1238C47.8961 35.0706 47.8286 35.0391 47.7576 35.0391H0.244613C0.173637 35.0391 0.106604 35.0701 0.0602721 35.1238C0.0139406 35.1771 -0.00676077 35.2485 0.0035899 35.319C0.0104903 35.3634 0.727151 39.7629 6.2894 39.7629H41.7128C47.2746 39.7629 47.9913 35.3634 47.9987 35.319C48.0085 35.2485 47.9878 35.1771 47.942 35.1238ZM27.5743 38.2221H20.4274V36.5788H27.5743V38.2221Z" fill="#848F9A"/>
<path d="M5.18011 33.3288H42.822C43.3662 33.3288 43.8078 32.8872 43.8078 32.343V9.22357C43.8078 8.67942 43.3662 8.23779 42.822 8.23779H5.18011C4.63596 8.23779 4.19434 8.67942 4.19434 9.22357V32.343C4.19434 32.8872 4.63596 33.3288 5.18011 33.3288Z" fill="#848F9A"/>
</g>
<defs>
<clipPath id="clip0_170:36">
<rect width="48" height="48" fill="white" transform="translate(0.000976562)"/>
</clipPath>
</defs>
</svg>
