<svg width="48" height="48" viewBox="0 0 48 48" fill="none" xmlns="http://www.w3.org/2000/svg">
<g clip-path="url(#clip0_176:144)">
<path d="M45.0733 35.3028L38.3604 30.2681C40.0386 27.3911 40.7578 24.0347 40.7578 20.4385C40.7578 9.17041 31.6475 0.0600586 20.3794 0.0600586C9.11133 0.0600586 0.000976562 9.17041 0.000976562 20.4384C0.000976562 31.7064 9.11133 40.8168 20.3794 40.8168C23.9756 40.8168 27.0923 39.8578 30.209 38.4194L35.2437 45.1323C37.8809 48.4887 42.9155 48.9682 46.0322 45.8515C48.9092 42.9745 48.6695 37.9399 45.0733 35.3028ZM20.3794 36.022C11.7485 36.022 4.7959 29.0693 4.7959 20.4385C4.7959 11.8076 11.7485 4.85498 20.3794 4.85498C29.0103 4.85498 35.9629 11.8076 35.9629 20.4384C35.9629 29.0692 29.0103 36.022 20.3794 36.022Z" fill="#848F9A"/>
<g clip-path="url(#clip1_176:144)">
<path d="M20.146 11.1431C16.3501 11.1431 13.2471 14.2461 13.2471 18.042C13.2471 21.838 16.3501 24.941 20.146 24.941C23.9419 24.941 27.0449 21.838 27.0449 18.042C27.0449 14.2461 23.9419 11.1431 20.146 11.1431Z" fill="#848F9A"/>
<path d="M31.9858 30.4539C31.805 30.002 31.564 29.5803 31.2929 29.1886C29.9071 27.14 27.7681 25.7843 25.358 25.4529C25.0568 25.4228 24.7254 25.483 24.4844 25.6638C23.219 26.5977 21.7128 27.0797 20.1461 27.0797C18.5795 27.0797 17.0732 26.5977 15.8079 25.6638C15.5669 25.483 15.2355 25.3927 14.9343 25.4529C12.5242 25.7843 10.3551 27.14 8.99941 29.1886C8.72827 29.5803 8.48724 30.0322 8.30652 30.4539C8.21616 30.6347 8.24626 30.8456 8.33662 31.0263C8.57765 31.4481 8.87889 31.8699 9.15002 32.2314C9.57178 32.8038 10.0237 33.3159 10.5359 33.798C10.9576 34.2197 11.4396 34.6114 11.9217 35.003C14.3016 36.7805 17.1637 37.7144 20.116 37.7144C23.0684 37.7144 25.9304 36.7804 28.3104 35.003C28.7924 34.6415 29.2744 34.2197 29.6962 33.798C30.1782 33.3159 30.6603 32.8038 31.0821 32.2314C31.3833 31.8398 31.6545 31.4481 31.8955 31.0263C32.046 30.8456 32.0761 30.6346 31.9858 30.4539Z" fill="#848F9A"/>
</g>
</g>
<defs>
<clipPath id="clip0_176:144">
<rect width="48" height="48" fill="white" transform="translate(0.000976562)"/>
</clipPath>
<clipPath id="clip1_176:144">
<rect width="26.5714" height="26.5714" fill="white" transform="translate(6.8584 11.1431)"/>
</clipPath>
</defs>
</svg>
