<svg width="48" height="48" viewBox="0 0 48 48" fill="none" xmlns="http://www.w3.org/2000/svg">
<g clip-path="url(#clip0_170:97)">
<path d="M38.5727 15.4285H36.8584V20.5713H38.5727V15.4285Z" fill="#848F9A"/>
<path d="M38.5727 24H36.8584V32.5431H38.5727V24Z" fill="#848F9A"/>
<path d="M28.2865 0H16.2866L14.5723 6.85714H30.0008L28.2865 0Z" fill="#848F9A"/>
<path d="M14.5723 41.1428L16.2866 48H28.2865L30.0008 41.1428H14.5723Z" fill="#848F9A"/>
<path d="M30.0011 8.57153H14.5725C11.7322 8.57153 9.42969 10.874 9.42969 13.7144V34.2858C9.42969 37.1262 11.7322 39.4287 14.5725 39.4287H30.0011C32.8415 39.4287 35.144 37.1262 35.144 34.2858V13.7144C35.144 10.874 32.8415 8.57153 30.0011 8.57153Z" fill="#848F9A"/>
</g>
<defs>
<clipPath id="clip0_170:97">
<rect width="48" height="48" fill="white" transform="translate(0.000976562)"/>
</clipPath>
</defs>
</svg>
