<svg width="48" height="48" viewBox="0 0 48 48" fill="none" xmlns="http://www.w3.org/2000/svg">
<path d="M32.1519 0H15.9362C13.1793 0 10.8369 2.24786 10.8369 5.00393V43.0018C10.8369 45.7579 13.1298 48 15.8866 48L32.1291 47.9825C34.8855 47.9825 37.1406 45.7399 37.1406 42.9835L37.1643 5.00126C37.1639 2.23528 34.9198 0 32.1519 0ZM21.7015 3.00007H26.4061C26.8194 3.00007 27.156 3.33557 27.156 3.74999C27.156 4.16441 26.8194 4.49992 26.4061 4.49992H21.7015C21.287 4.49992 20.9515 4.16441 20.9515 3.74999C20.9515 3.33557 21.287 3.00007 21.7015 3.00007ZM18.8745 3.23873C19.1524 2.96118 19.6583 2.95737 19.9359 3.23873C20.075 3.37751 20.1574 3.57233 20.1574 3.77134C20.1574 3.96654 20.075 4.16098 19.9359 4.30014C19.7975 4.4393 19.6019 4.52127 19.4071 4.52127C19.2084 4.52127 19.0174 4.4393 18.8745 4.30014C18.7361 4.16136 18.6572 3.96654 18.6572 3.77134C18.6568 3.57233 18.7361 3.37751 18.8745 3.23873ZM23.9024 46.5135C22.6649 46.5135 21.6584 45.5062 21.6584 44.2691C21.6584 43.0315 22.6649 42.0246 23.9024 42.0246C25.14 42.0246 26.1465 43.0315 26.1465 44.2691C26.1465 45.5062 25.1396 46.5135 23.9024 46.5135Z" fill="#848F9A"/>
</svg>
